<?xml version="1.0" encoding="UTF-8" standalone="no"?>
<!-- Created with Inkscape (http://www.inkscape.org/) -->

<svg
   width="269.55188mm"
   height="269.55188mm"
   viewBox="0 0 269.55188 269.55188"
   version="1.1"
   id="svg5"
   sodipodi:docname="lets_learn.svg"
   inkscape:version="1.2.2 (732a01da63, 2022-12-09, custom)"
   xmlns:inkscape="http://www.inkscape.org/namespaces/inkscape"
   xmlns:sodipodi="http://sodipodi.sourceforge.net/DTD/sodipodi-0.dtd"
   xmlns="http://www.w3.org/2000/svg"
   xmlns:svg="http://www.w3.org/2000/svg">
  <sodipodi:namedview
     id="namedview7"
     pagecolor="#ffffff"
     bordercolor="#666666"
     borderopacity="1.0"
     inkscape:showpageshadow="2"
     inkscape:pageopacity="0.0"
     inkscape:pagecheckerboard="0"
     inkscape:deskcolor="#d1d1d1"
     inkscape:document-units="mm"
     showgrid="false"
     inkscape:zoom="1.8761364"
     inkscape:cx="278.49788"
     inkscape:cy="673.45851"
     inkscape:window-width="3800"
     inkscape:window-height="2096"
     inkscape:window-x="40"
     inkscape:window-y="27"
     inkscape:window-maximized="1"
     inkscape:current-layer="layer1" />
  <defs
     id="defs2">
    <clipPath
       clipPathUnits="userSpaceOnUse"
       id="clipPath742">
      <g
         id="g752">
        <rect
           style="fill:#ffffff;stroke:#000000;stroke-width:2.38125;stroke-linecap:round;stroke-linejoin:round;stroke-dashoffset:0.399999"
           id="rect744"
           width="45.889297"
           height="25.319588"
           x="-379.85864"
           y="-412.38568"
           ry="0.5748685"
           transform="rotate(-24.944937)" />
        <rect
           style="fill:#ffffff;stroke:#000000;stroke-width:2.38125;stroke-linecap:round;stroke-linejoin:round;stroke-dashoffset:0.399999"
           id="rect746"
           width="45.889297"
           height="25.319588"
           x="-528.16187"
           y="-46.281628"
           ry="0.5748685"
           transform="rotate(11.033289)" />
        <rect
           style="fill:#ffffff;stroke:#000000;stroke-width:3.05937;stroke-linecap:round;stroke-linejoin:round;stroke-dashoffset:0.399999"
           id="rect748"
           width="242.57896"
           height="240.6194"
           x="-476.23434"
           y="-296.6304"
           ry="0.57325292" />
        <rect
           style="fill:#ffffff;stroke:#000000;stroke-width:3.14127;stroke-linecap:round;stroke-linejoin:round;stroke-dashoffset:0.399999"
           id="rect750"
           width="45.868088"
           height="89.112572"
           x="-546.12714"
           y="-211.94798"
           ry="1.016968" />
      </g>
    </clipPath>
    <clipPath
       clipPathUnits="userSpaceOnUse"
       id="clipPath7090-5">
      <rect
         style="fill:#000000;fill-opacity:1;stroke:none;stroke-width:2.38125;stroke-linecap:round;stroke-linejoin:round;stroke-dashoffset:0.399999;stroke-opacity:1"
         id="rect7092-3"
         width="21.201435"
         height="14.94858"
         x="123.49371"
         y="-77.222092" />
    </clipPath>
    <clipPath
       clipPathUnits="userSpaceOnUse"
       id="clipPath7090">
      <rect
         style="fill:#000000;fill-opacity:1;stroke:none;stroke-width:2.38125;stroke-linecap:round;stroke-linejoin:round;stroke-dashoffset:0.399999;stroke-opacity:1"
         id="rect7092"
         width="21.201435"
         height="14.94858"
         x="123.49371"
         y="-77.222092" />
    </clipPath>
    <clipPath
       clipPathUnits="userSpaceOnUse"
       id="clipPath3000-1-5-1">
      <g
         id="g3016-8-9-9"
         transform="matrix(8.2492072,0,0,8.2278815,-217.66333,1635.9936)">
        <path
           style="fill:#7887ab;fill-opacity:0.425086;stroke:none;stroke-width:2.44206;stroke-linecap:round;stroke-linejoin:round;stroke-dashoffset:0.399999"
           id="path3002-7-2-4"
           sodipodi:type="arc"
           sodipodi:cx="64.737144"
           sodipodi:cy="-163.65541"
           sodipodi:rx="16.200552"
           sodipodi:ry="15.783353"
           sodipodi:start="0"
           sodipodi:end="6.2775729"
           sodipodi:open="true"
           sodipodi:arc-type="arc"
           d="m 80.937696,-163.65541 a 16.200552,15.783353 0 0 1 -16.177821,15.78334 16.200552,15.783353 0 0 1 -16.223219,-15.73905 16.200552,15.783353 0 0 1 16.132296,-15.8275 16.200552,15.783353 0 0 1 16.268489,15.69463" />
        <path
           style="fill:#7887ab;fill-opacity:0.425086;stroke:none;stroke-width:2.44206;stroke-linecap:round;stroke-linejoin:round;stroke-dashoffset:0.399999"
           id="path3004-9-2-7"
           sodipodi:type="arc"
           sodipodi:cx="64.923241"
           sodipodi:cy="-170.28719"
           sodipodi:rx="16.200552"
           sodipodi:ry="15.783353"
           sodipodi:start="0"
           sodipodi:end="6.2775729"
           sodipodi:open="true"
           sodipodi:arc-type="arc"
           d="m 81.123793,-170.28719 a 16.200552,15.783353 0 0 1 -16.177821,15.78334 16.200552,15.783353 0 0 1 -16.22322,-15.73904 16.200552,15.783353 0 0 1 16.132296,-15.82751 16.200552,15.783353 0 0 1 16.268489,15.69463" />
        <path
           style="fill:#7887ab;fill-opacity:0.425086;stroke:none;stroke-width:3.78888;stroke-linecap:round;stroke-linejoin:round;stroke-dashoffset:0.399999"
           id="path3006-2-8-8"
           sodipodi:type="arc"
           sodipodi:cx="103.26582"
           sodipodi:cy="-179.57236"
           sodipodi:rx="38.99765"
           sodipodi:ry="15.783353"
           sodipodi:start="0"
           sodipodi:end="6.2775729"
           sodipodi:open="true"
           sodipodi:arc-type="arc"
           d="m 142.26347,-179.57236 a 38.99765,15.783353 0 0 1 -38.94293,15.78334 38.99765,15.783353 0 0 1 -39.052213,-15.73905 38.99765,15.783353 0 0 1 38.833343,-15.8275 38.99765,15.783353 0 0 1 39.16119,15.69463" />
        <path
           style="fill:#7887ab;fill-opacity:0.425086;stroke:none;stroke-width:2.34446;stroke-linecap:round;stroke-linejoin:round;stroke-dashoffset:0.399999"
           id="path3008-0-9-4"
           sodipodi:type="arc"
           sodipodi:cx="136.90419"
           sodipodi:cy="-169.12315"
           sodipodi:rx="13.721117"
           sodipodi:ry="17.175591"
           sodipodi:start="0"
           sodipodi:end="6.2775729"
           sodipodi:open="true"
           sodipodi:arc-type="arc"
           d="m 150.62531,-169.12315 a 13.721117,17.175591 0 0 1 -13.70187,17.17557 13.721117,17.175591 0 0 1 -13.74031,-17.12738 13.721117,17.175591 0 0 1 13.6633,-17.22363 13.721117,17.175591 0 0 1 13.77866,17.07904" />
        <path
           style="fill:#7887ab;fill-opacity:0.425086;stroke:none;stroke-width:3.08894;stroke-linecap:round;stroke-linejoin:round;stroke-dashoffset:0.399999"
           id="path3010-2-7-5"
           sodipodi:type="arc"
           sodipodi:cx="129.5618"
           sodipodi:cy="-159.7014"
           sodipodi:rx="12.459228"
           sodipodi:ry="10.466006"
           sodipodi:start="0"
           sodipodi:end="6.2775729"
           sodipodi:open="true"
           sodipodi:arc-type="arc"
           d="m 142.02103,-159.7014 a 12.459228,10.466006 0 0 1 -12.44175,10.466 12.459228,10.466006 0 0 1 -12.47666,-10.43663 12.459228,10.466006 0 0 1 12.40673,-10.49528 12.459228,10.466006 0 0 1 12.51148,10.40717" />
        <path
           style="fill:#7887ab;fill-opacity:0.425086;stroke:none;stroke-width:3.08894;stroke-linecap:round;stroke-linejoin:round;stroke-dashoffset:0.399999"
           id="path3012-3-3-0"
           sodipodi:type="arc"
           sodipodi:cx="120.47342"
           sodipodi:cy="-151.77776"
           sodipodi:rx="12.459228"
           sodipodi:ry="10.466006"
           sodipodi:start="0"
           sodipodi:end="6.2775729"
           sodipodi:open="true"
           sodipodi:arc-type="arc"
           d="m 132.93265,-151.77776 a 12.459228,10.466006 0 0 1 -12.44175,10.466 12.459228,10.466006 0 0 1 -12.47666,-10.43663 12.459228,10.466006 0 0 1 12.40673,-10.49528 12.459228,10.466006 0 0 1 12.51148,10.40718" />
        <path
           style="fill:#7887ab;fill-opacity:0.425086;stroke:none;stroke-width:4.84853;stroke-linecap:round;stroke-linejoin:round;stroke-dashoffset:0.399999"
           id="path3014-7-6-3"
           sodipodi:type="arc"
           sodipodi:cx="94.16452"
           sodipodi:cy="-153.65694"
           sodipodi:rx="26.11651"
           sodipodi:ry="12.301496"
           sodipodi:start="0"
           sodipodi:end="6.2775729"
           sodipodi:open="true"
           sodipodi:arc-type="arc"
           d="m 120.28103,-153.65694 a 26.11651,12.301496 0 0 1 -26.079866,12.30149 26.11651,12.301496 0 0 1 -26.153051,-12.26697 26.11651,12.301496 0 0 1 26.006475,-12.3359 26.11651,12.301496 0 0 1 26.226032,12.23234" />
      </g>
    </clipPath>
    <clipPath
       clipPathUnits="userSpaceOnUse"
       id="clipPath7220-1-4-6-2">
      <rect
         style="fill:#ffffff;fill-opacity:1;stroke:#000000;stroke-width:2.91277;stroke-linecap:round;stroke-linejoin:round;stroke-dashoffset:0.399999;stroke-opacity:1"
         id="rect7222-5-7-0-6"
         width="24.743176"
         height="9.6501303"
         x="85.44574"
         y="-43.150074"
         ry="0.5748685" />
    </clipPath>
    <clipPath
       clipPathUnits="userSpaceOnUse"
       id="clipPath7220-1-4-6">
      <rect
         style="fill:#ffffff;fill-opacity:1;stroke:#000000;stroke-width:2.91277;stroke-linecap:round;stroke-linejoin:round;stroke-dashoffset:0.399999;stroke-opacity:1"
         id="rect7222-5-7-0"
         width="24.743176"
         height="9.6501303"
         x="85.44574"
         y="-43.150074"
         ry="0.5748685" />
    </clipPath>
    <clipPath
       clipPathUnits="userSpaceOnUse"
       id="clipPath7220-1-4">
      <rect
         style="fill:#ffffff;fill-opacity:1;stroke:#000000;stroke-width:2.91277;stroke-linecap:round;stroke-linejoin:round;stroke-dashoffset:0.399999;stroke-opacity:1"
         id="rect7222-5-7"
         width="24.743176"
         height="9.6501303"
         x="85.44574"
         y="-43.150074"
         ry="0.5748685" />
    </clipPath>
    <clipPath
       clipPathUnits="userSpaceOnUse"
       id="clipPath7220-1">
      <rect
         style="fill:#ffffff;fill-opacity:1;stroke:#000000;stroke-width:2.91277;stroke-linecap:round;stroke-linejoin:round;stroke-dashoffset:0.399999;stroke-opacity:1"
         id="rect7222-5"
         width="24.743176"
         height="9.6501303"
         x="85.44574"
         y="-43.150074"
         ry="0.5748685" />
    </clipPath>
    <clipPath
       clipPathUnits="userSpaceOnUse"
       id="clipPath6964-6-1">
      <rect
         style="fill:#000000;fill-opacity:1;stroke:none;stroke-width:2.38125;stroke-linecap:round;stroke-linejoin:round;stroke-dashoffset:0.399999;stroke-opacity:1"
         id="rect6966-1-2"
         width="8.1756086"
         height="31.890259"
         x="144.53458"
         y="-68.887146" />
    </clipPath>
    <clipPath
       clipPathUnits="userSpaceOnUse"
       id="clipPath6964-7">
      <rect
         style="fill:#000000;fill-opacity:1;stroke:none;stroke-width:2.38125;stroke-linecap:round;stroke-linejoin:round;stroke-dashoffset:0.399999;stroke-opacity:1"
         id="rect6966-0"
         width="8.1756086"
         height="31.890259"
         x="144.53458"
         y="-68.887146" />
    </clipPath>
    <clipPath
       clipPathUnits="userSpaceOnUse"
       id="clipPath6964-6">
      <rect
         style="fill:#000000;fill-opacity:1;stroke:none;stroke-width:2.38125;stroke-linecap:round;stroke-linejoin:round;stroke-dashoffset:0.399999;stroke-opacity:1"
         id="rect6966-1"
         width="8.1756086"
         height="31.890259"
         x="144.53458"
         y="-68.887146" />
    </clipPath>
    <clipPath
       clipPathUnits="userSpaceOnUse"
       id="clipPath6964">
      <rect
         style="fill:#000000;fill-opacity:1;stroke:none;stroke-width:2.38125;stroke-linecap:round;stroke-linejoin:round;stroke-dashoffset:0.399999;stroke-opacity:1"
         id="rect6966"
         width="8.1756086"
         height="31.890259"
         x="144.53458"
         y="-68.887146" />
    </clipPath>
    <clipPath
       clipPathUnits="userSpaceOnUse"
       id="clipPath6964-3">
      <rect
         style="fill:#000000;fill-opacity:1;stroke:none;stroke-width:2.38125;stroke-linecap:round;stroke-linejoin:round;stroke-dashoffset:0.399999;stroke-opacity:1"
         id="rect6966-07"
         width="8.1756086"
         height="31.890259"
         x="144.53458"
         y="-68.887146" />
    </clipPath>
    <clipPath
       clipPathUnits="userSpaceOnUse"
       id="clipPath6964-6-8">
      <rect
         style="fill:#000000;fill-opacity:1;stroke:none;stroke-width:2.38125;stroke-linecap:round;stroke-linejoin:round;stroke-dashoffset:0.399999;stroke-opacity:1"
         id="rect6966-1-6"
         width="8.1756086"
         height="31.890259"
         x="144.53458"
         y="-68.887146" />
    </clipPath>
    <clipPath
       clipPathUnits="userSpaceOnUse"
       id="clipPath6964-7-8">
      <rect
         style="fill:#000000;fill-opacity:1;stroke:none;stroke-width:2.38125;stroke-linecap:round;stroke-linejoin:round;stroke-dashoffset:0.399999;stroke-opacity:1"
         id="rect6966-0-8"
         width="8.1756086"
         height="31.890259"
         x="144.53458"
         y="-68.887146" />
    </clipPath>
    <clipPath
       clipPathUnits="userSpaceOnUse"
       id="clipPath6964-6-1-4">
      <rect
         style="fill:#000000;fill-opacity:1;stroke:none;stroke-width:2.38125;stroke-linecap:round;stroke-linejoin:round;stroke-dashoffset:0.399999;stroke-opacity:1"
         id="rect6966-1-2-3"
         width="8.1756086"
         height="31.890259"
         x="144.53458"
         y="-68.887146" />
    </clipPath>
    <clipPath
       clipPathUnits="userSpaceOnUse"
       id="clipPath7220-1-1">
      <rect
         style="fill:#ffffff;fill-opacity:1;stroke:#000000;stroke-width:2.91277;stroke-linecap:round;stroke-linejoin:round;stroke-dashoffset:0.399999;stroke-opacity:1"
         id="rect7222-5-4"
         width="24.743176"
         height="9.6501303"
         x="85.44574"
         y="-43.150074"
         ry="0.5748685" />
    </clipPath>
    <clipPath
       clipPathUnits="userSpaceOnUse"
       id="clipPath7220-1-4-9">
      <rect
         style="fill:#ffffff;fill-opacity:1;stroke:#000000;stroke-width:2.91277;stroke-linecap:round;stroke-linejoin:round;stroke-dashoffset:0.399999;stroke-opacity:1"
         id="rect7222-5-7-2"
         width="24.743176"
         height="9.6501303"
         x="85.44574"
         y="-43.150074"
         ry="0.5748685" />
    </clipPath>
    <clipPath
       clipPathUnits="userSpaceOnUse"
       id="clipPath7220-1-4-6-0">
      <rect
         style="fill:#ffffff;fill-opacity:1;stroke:#000000;stroke-width:2.91277;stroke-linecap:round;stroke-linejoin:round;stroke-dashoffset:0.399999;stroke-opacity:1"
         id="rect7222-5-7-0-68"
         width="24.743176"
         height="9.6501303"
         x="85.44574"
         y="-43.150074"
         ry="0.5748685" />
    </clipPath>
    <clipPath
       clipPathUnits="userSpaceOnUse"
       id="clipPath7220-1-4-6-2-9">
      <rect
         style="fill:#ffffff;fill-opacity:1;stroke:#000000;stroke-width:2.91277;stroke-linecap:round;stroke-linejoin:round;stroke-dashoffset:0.399999;stroke-opacity:1"
         id="rect7222-5-7-0-6-2"
         width="24.743176"
         height="9.6501303"
         x="85.44574"
         y="-43.150074"
         ry="0.5748685" />
    </clipPath>
    <clipPath
       clipPathUnits="userSpaceOnUse"
       id="clipPath3000-1-5-1-6">
      <g
         id="g3016-8-9-9-6"
         transform="matrix(8.2492072,0,0,8.2278815,-217.66333,1635.9936)">
        <path
           style="fill:#7887ab;fill-opacity:0.425086;stroke:none;stroke-width:2.44206;stroke-linecap:round;stroke-linejoin:round;stroke-dashoffset:0.399999"
           id="path3002-7-2-4-4"
           sodipodi:type="arc"
           sodipodi:cx="64.737144"
           sodipodi:cy="-163.65541"
           sodipodi:rx="16.200552"
           sodipodi:ry="15.783353"
           sodipodi:start="0"
           sodipodi:end="6.2775729"
           sodipodi:open="true"
           sodipodi:arc-type="arc"
           d="m 80.937696,-163.65541 a 16.200552,15.783353 0 0 1 -16.177821,15.78334 16.200552,15.783353 0 0 1 -16.223219,-15.73905 16.200552,15.783353 0 0 1 16.132296,-15.8275 16.200552,15.783353 0 0 1 16.268489,15.69463" />
        <path
           style="fill:#7887ab;fill-opacity:0.425086;stroke:none;stroke-width:2.44206;stroke-linecap:round;stroke-linejoin:round;stroke-dashoffset:0.399999"
           id="path3004-9-2-7-9"
           sodipodi:type="arc"
           sodipodi:cx="64.923241"
           sodipodi:cy="-170.28719"
           sodipodi:rx="16.200552"
           sodipodi:ry="15.783353"
           sodipodi:start="0"
           sodipodi:end="6.2775729"
           sodipodi:open="true"
           sodipodi:arc-type="arc"
           d="m 81.123793,-170.28719 a 16.200552,15.783353 0 0 1 -16.177821,15.78334 16.200552,15.783353 0 0 1 -16.22322,-15.73904 16.200552,15.783353 0 0 1 16.132296,-15.82751 16.200552,15.783353 0 0 1 16.268489,15.69463" />
        <path
           style="fill:#7887ab;fill-opacity:0.425086;stroke:none;stroke-width:3.78888;stroke-linecap:round;stroke-linejoin:round;stroke-dashoffset:0.399999"
           id="path3006-2-8-8-5"
           sodipodi:type="arc"
           sodipodi:cx="103.26582"
           sodipodi:cy="-179.57236"
           sodipodi:rx="38.99765"
           sodipodi:ry="15.783353"
           sodipodi:start="0"
           sodipodi:end="6.2775729"
           sodipodi:open="true"
           sodipodi:arc-type="arc"
           d="m 142.26347,-179.57236 a 38.99765,15.783353 0 0 1 -38.94293,15.78334 38.99765,15.783353 0 0 1 -39.052213,-15.73905 38.99765,15.783353 0 0 1 38.833343,-15.8275 38.99765,15.783353 0 0 1 39.16119,15.69463" />
        <path
           style="fill:#7887ab;fill-opacity:0.425086;stroke:none;stroke-width:2.34446;stroke-linecap:round;stroke-linejoin:round;stroke-dashoffset:0.399999"
           id="path3008-0-9-4-0"
           sodipodi:type="arc"
           sodipodi:cx="136.90419"
           sodipodi:cy="-169.12315"
           sodipodi:rx="13.721117"
           sodipodi:ry="17.175591"
           sodipodi:start="0"
           sodipodi:end="6.2775729"
           sodipodi:open="true"
           sodipodi:arc-type="arc"
           d="m 150.62531,-169.12315 a 13.721117,17.175591 0 0 1 -13.70187,17.17557 13.721117,17.175591 0 0 1 -13.74031,-17.12738 13.721117,17.175591 0 0 1 13.6633,-17.22363 13.721117,17.175591 0 0 1 13.77866,17.07904" />
        <path
           style="fill:#7887ab;fill-opacity:0.425086;stroke:none;stroke-width:3.08894;stroke-linecap:round;stroke-linejoin:round;stroke-dashoffset:0.399999"
           id="path3010-2-7-5-4"
           sodipodi:type="arc"
           sodipodi:cx="129.5618"
           sodipodi:cy="-159.7014"
           sodipodi:rx="12.459228"
           sodipodi:ry="10.466006"
           sodipodi:start="0"
           sodipodi:end="6.2775729"
           sodipodi:open="true"
           sodipodi:arc-type="arc"
           d="m 142.02103,-159.7014 a 12.459228,10.466006 0 0 1 -12.44175,10.466 12.459228,10.466006 0 0 1 -12.47666,-10.43663 12.459228,10.466006 0 0 1 12.40673,-10.49528 12.459228,10.466006 0 0 1 12.51148,10.40717" />
        <path
           style="fill:#7887ab;fill-opacity:0.425086;stroke:none;stroke-width:3.08894;stroke-linecap:round;stroke-linejoin:round;stroke-dashoffset:0.399999"
           id="path3012-3-3-0-8"
           sodipodi:type="arc"
           sodipodi:cx="120.47342"
           sodipodi:cy="-151.77776"
           sodipodi:rx="12.459228"
           sodipodi:ry="10.466006"
           sodipodi:start="0"
           sodipodi:end="6.2775729"
           sodipodi:open="true"
           sodipodi:arc-type="arc"
           d="m 132.93265,-151.77776 a 12.459228,10.466006 0 0 1 -12.44175,10.466 12.459228,10.466006 0 0 1 -12.47666,-10.43663 12.459228,10.466006 0 0 1 12.40673,-10.49528 12.459228,10.466006 0 0 1 12.51148,10.40718" />
        <path
           style="fill:#7887ab;fill-opacity:0.425086;stroke:none;stroke-width:4.84853;stroke-linecap:round;stroke-linejoin:round;stroke-dashoffset:0.399999"
           id="path3014-7-6-3-7"
           sodipodi:type="arc"
           sodipodi:cx="94.16452"
           sodipodi:cy="-153.65694"
           sodipodi:rx="26.11651"
           sodipodi:ry="12.301496"
           sodipodi:start="0"
           sodipodi:end="6.2775729"
           sodipodi:open="true"
           sodipodi:arc-type="arc"
           d="m 120.28103,-153.65694 a 26.11651,12.301496 0 0 1 -26.079866,12.30149 26.11651,12.301496 0 0 1 -26.153051,-12.26697 26.11651,12.301496 0 0 1 26.006475,-12.3359 26.11651,12.301496 0 0 1 26.226032,12.23234" />
      </g>
    </clipPath>
    <clipPath
       clipPathUnits="userSpaceOnUse"
       id="clipPath7090-1">
      <rect
         style="fill:#000000;fill-opacity:1;stroke:none;stroke-width:2.38125;stroke-linecap:round;stroke-linejoin:round;stroke-dashoffset:0.399999;stroke-opacity:1"
         id="rect7092-7"
         width="21.201435"
         height="14.94858"
         x="123.49371"
         y="-77.222092" />
    </clipPath>
    <clipPath
       clipPathUnits="userSpaceOnUse"
       id="clipPath7090-5-2">
      <rect
         style="fill:#000000;fill-opacity:1;stroke:none;stroke-width:2.38125;stroke-linecap:round;stroke-linejoin:round;stroke-dashoffset:0.399999;stroke-opacity:1"
         id="rect7092-3-7"
         width="21.201435"
         height="14.94858"
         x="123.49371"
         y="-77.222092" />
    </clipPath>
  </defs>
  <g
     inkscape:label="Layer 1"
     inkscape:groupmode="layer"
     id="layer1"
     transform="translate(-148.10016,134.40776)">
    <path
       style="fill:#eaeaea;fill-opacity:0.83372301;stroke:none;stroke-width:1.12446;stroke-linecap:round;stroke-linejoin:round;stroke-dashoffset:0.399999"
       id="path1010"
       sodipodi:type="arc"
       sodipodi:cx="282.8761"
       sodipodi:cy="0.36817983"
       sodipodi:rx="134.77594"
       sodipodi:ry="134.77594"
       sodipodi:start="0"
       sodipodi:end="6.2775729"
       sodipodi:open="true"
       sodipodi:arc-type="arc"
       d="M 417.65204,0.36817983 A 134.77594,134.77594 0 0 1 283.0652,135.14399 134.77594,134.77594 0 0 1 148.10069,0.74638806 134.77594,134.77594 0 0 1 282.30879,-134.40657 134.77594,134.77594 0 0 1 417.64992,-0.38823365" />
    <g
       id="g1672"
       transform="matrix(1.3727108,0,0,1.3727108,394.85377,-71.194717)">
      <path
         d="m -54.33038,41.79974 c -0.16475,0.28153 -0.0731,0.81944 -0.11964,1.22061 0.0494,-0.4007 0.0788,-0.81374 0.11964,-1.22061 z"
         id="path599-0"
         style="fill-rule:evenodd;stroke-width:0.121538" />
      <path
         d="M 8.89636,37.60281 C 8.00241,30.29679 -0.31421,31.3581 -6.6205,31.19912 c 0.0227,-1.29119 0.40957,-2.21789 0.2462,-3.69441 3.83809,-1.49729 4.27535,-6.39771 5.17229,-10.83717 -0.1971,-0.94004 -0.41156,1.4973 -0.49274,0 -0.74196,-4.99791 -4.2774,-6.12575 -6.4037,-9.35937 -1.90385,-0.8345 -3.50463,0.40756 -4.93411,-0.34877 0.21147,0.0956 0.45567,0.12428 0.50077,-0.14364 -2.49977,0.0277 -5.1793,-0.5325 -6.65026,-1.97031 -2.23123,0.3932 -3.96037,-0.35511 -6.15748,0.24621 -2.24663,0.61567 -3.88451,2.6324 -6.15748,1.72409 -0.87959,-0.3521 -0.62304,-1.57546 -1.23133,-2.21686 -0.88659,-0.93509 -1.93354,-0.73361 -2.70929,-1.97032 -1.26844,-0.57659 -2.02376,-0.13863 -2.95551,-0.98519 0.16202,-0.73795 0.52648,0.23485 0.9852,0 -0.30066,-1.37397 -3.16093,-0.78907 -4.43339,-1.97031 h -3.6944 c -4.86963,1.20601 -8.5424,3.6082 -10.83718,7.38881 -7.5542,-0.40021 -12.56297,3.80832 -13.05386,11.82237 v 1.23132 c 0.79841,4.91479 4.35018,8.22734 7.88158,9.60568 -0.64875,5.68643 0.46268,14.64967 -0.24621,19.2122 -0.14665,0.94509 0.50812,2.16743 0.49275,3.44725 -0.0605,5.02031 -0.0164,10.57205 0,15.27056 0.0217,6.08966 -1.45616,14.89426 1.23132,18.47244 2.48976,3.31358 8.69061,2.20113 15.02426,2.21687 6.12576,0.0164 12.90078,0.25756 20.44285,0.2462 6.57611,-0.0104 15.26457,1.26545 17.48725,-3.69543 2.44033,-5.44424 -0.41356,-13.09406 0.73996,-18.96419 5.98113,-1.27981 14.38199,1.32087 15.27055,-6.40369 0.56524,-4.9271 0.63506,-16.70988 -7e-4,-21.92065 z m -18.96591,46.05883 c -1.38936,2.07918 -4.69293,1.39775 -7.88157,1.23039 -1.74684,-0.0912 -3.74589,0.3952 -4.92616,0.2462 -0.51011,-0.0635 -1.0212,-0.7306 -1.47788,-0.73895 -1.88812,-0.0337 -3.99843,0.61769 -5.66472,0.73895 -1.19865,-0.36213 -1.82971,-1.29016 -3.69543,-0.98519 0.47103,0.52348 -0.71823,0.49976 -1.72409,0.73894 0.16001,-0.24921 0.56657,-0.25456 0.49274,-0.73894 -1.50662,0.92866 -2.72665,-0.58696 -3.6944,0.98519 -0.9628,-1.56212 -5.69585,-0.75532 -9.85198,-0.73895 -1.43478,0.006 -3.72314,-0.31702 -6.15748,0.73895 0.32939,-0.86623 -0.21347,-0.89694 -1.47788,-1.23132 -1.45522,-7.59731 -1.06097,-16.00176 -1.23133,-23.89018 -0.16302,-7.57456 0.7286,-14.93874 -0.2462,-22.90584 0.67414,-2.00443 0.155,-3.91188 0.2462,-6.65025 1.65525,-0.56123 3.8167,-0.61668 4.92616,-1.72409 3.55714,4.90238 14.16905,4.83054 17.24095,-0.24621 2.577,0.87624 6.86372,1.96731 9.60568,0.49274 2.44974,0.81278 6.13807,0.55923 8.37435,-0.2462 1.57409,0.89198 5.22676,1.47455 7.14268,0.49274 0.76467,10.92697 -0.0401,26.54816 0.49274,39.90049 0.13162,3.27253 1.07671,12.18241 -0.49241,14.53166 z M -17.21222,25.0424 c -2.3254,1.15051 -5.58493,1.63892 -8.1278,0.24621 -3.48299,2.03915 -8.00986,1.0643 -10.34457,-1.7241 -1.80098,0.98315 -1.91917,3.15657 -3.69441,4.18718 -4.57501,2.65678 -10.19149,0.0604 -11.82236,-4.18718 -4.40662,5.35069 -15.92736,2.82518 -14.28536,-6.40369 0.54386,-0.85187 1.21935,-1.57213 1.23132,-2.95551 1.66868,-1.20498 3.31358,-2.43434 5.66471,-2.95551 1.02523,0.33674 4.50822,1.4081 5.4185,0 v 0.49275 c 0.44531,-0.91131 1.85041,-2.20951 1.47789,-3.4482 0.26792,0.0615 0.16736,0.49042 0.49274,0.49275 -0.14766,-1.17488 1.21696,-0.69786 0.9852,-2.46308 0.5933,-0.10055 0.53483,0.44966 1.23132,0.24621 2.00204,-2.42194 7.56558,-1.50661 9.60568,-1.47788 0.27493,0.30266 0.21447,0.50577 -0.24621,0.49274 1.64191,1.30453 4.65087,3.78497 4.92616,6.4037 0.0678,0.50711 0.91738,0.23184 0.9852,0.73895 2.09663,-1.51466 4.33683,-0.41057 6.65025,-0.9852 2.22987,-0.55321 3.11252,-2.30709 5.41756,-2.21686 1.9426,0.0758 4.55226,1.00452 5.9123,2.46307 0.7316,-0.25354 1.96834,-7e-4 2.21686,-0.73895 3.29024,0.49676 5.18272,1.91823 6.89647,3.44819 3.21035,7.32202 -3.75358,13.88598 -10.59173,10.34457 z M 4.95557,61.00211 c -1.35464,0.0411 -1.89043,0.90198 -3.20197,0.9852 v -0.73895 c -0.7747,1.29119 -1.81869,-0.62405 -2.21687,0.73895 -0.69486,-0.0441 -0.30801,-1.17087 -1.23133,-0.9852 -0.22983,0.18072 -0.37248,0.44832 -0.49274,0.73895 -0.27827,-0.0471 -0.13664,-0.24721 0,-0.24621 -1.51996,-0.42994 -2.89197,0.58194 -4.18615,-1.97031 0.0391,-0.2883 0.44965,-0.20746 0.73895,-0.2462 -0.0708,-7.77707 -0.50277,-15.9667 -0.24621,-24.13734 3.91822,0.31803 11.01592,-2.35617 11.57607,2.70929 0.1961,1.77755 -0.0668,4.19855 0,6.65026 0.16336,5.98242 0.34609,13.14109 -0.73961,16.5012 z"
         id="path597-6"
         style="fill-rule:evenodd;stroke-width:0.0855206" />
      <path
         d="m 150.77998,-95.7155 c -0.2893,-0.36647 -0.61769,-0.69485 -0.9852,-0.98519 -1.12382,-0.22048 -1.39569,0.40956 -2.21686,0.49274 -0.32004,2.53492 -0.39921,5.21043 -0.65577,7.76031 0.0361,-0.0604 0.0852,-0.1079 0.16301,-0.12628 0.58596,1.32189 -0.4904,1.16591 -0.73894,2.21687 0.10055,0.47504 0.95543,0.19509 0.73894,0.98519 -0.2913,-0.0348 -0.55821,-0.43829 -0.73894,0 0.87128,0.3932 -0.0564,1.15454 0.98519,1.47789 -1.46556,1.76719 -0.71623,4.95788 0,7.14267 -0.31502,-0.0134 -0.34175,-0.31602 -0.73895,-0.2462 0.77169,9.58771 -0.33874,17.557379 0.9852,24.629933 6.19221,2.563651 3.32598,-8.88388 3.20198,-12.314963 -0.32171,-8.91382 0.35544,-22.01215 3.4e-4,-31.03286 z"
         id="path601-6"
         style="fill:#000000;fill-opacity:1;fill-rule:evenodd;stroke-width:0.0855206"
         clip-path="url(#clipPath6964-3)"
         transform="translate(-193.89652,156.71042)" />
      <path
         d="m 150.77998,-95.7155 c -0.2893,-0.36647 -0.61769,-0.69485 -0.9852,-0.98519 -1.12382,-0.22048 -1.39569,0.40956 -2.21686,0.49274 -0.32004,2.53492 -0.39921,5.21043 -0.65577,7.76031 0.0361,-0.0604 0.0852,-0.1079 0.16301,-0.12628 0.58596,1.32189 -0.4904,1.16591 -0.73894,2.21687 0.10055,0.47504 0.95543,0.19509 0.73894,0.98519 -0.2913,-0.0348 -0.55821,-0.43829 -0.73894,0 0.87128,0.3932 -0.0564,1.15454 0.98519,1.47789 -1.46556,1.76719 -0.71623,4.95788 0,7.14267 -0.31502,-0.0134 -0.34175,-0.31602 -0.73895,-0.2462 0.77169,9.58771 -0.33874,17.557379 0.9852,24.629933 6.19221,2.563651 3.32598,-8.88388 3.20198,-12.314963 -0.32171,-8.91382 0.35544,-22.01215 3.4e-4,-31.03286 z"
         id="path601-6-0"
         style="fill:#000000;fill-opacity:1;fill-rule:evenodd;stroke-width:0.0855206"
         clip-path="url(#clipPath6964-6-8)"
         transform="translate(-171.56583,156.71042)" />
      <path
         d="m 150.77998,-95.7155 c -0.2893,-0.36647 -0.61769,-0.69485 -0.9852,-0.98519 -1.12382,-0.22048 -1.39569,0.40956 -2.21686,0.49274 -0.32004,2.53492 -0.39921,5.21043 -0.65577,7.76031 0.0361,-0.0604 0.0852,-0.1079 0.16301,-0.12628 0.58596,1.32189 -0.4904,1.16591 -0.73894,2.21687 0.10055,0.47504 0.95543,0.19509 0.73894,0.98519 -0.2913,-0.0348 -0.55821,-0.43829 -0.73894,0 0.87128,0.3932 -0.0564,1.15454 0.98519,1.47789 -1.46556,1.76719 -0.71623,4.95788 0,7.14267 -0.31502,-0.0134 -0.34175,-0.31602 -0.73895,-0.2462 0.77169,9.58771 -0.33874,17.557379 0.9852,24.629933 6.19221,2.563651 3.32598,-8.88388 3.20198,-12.314963 -0.32171,-8.91382 0.35544,-22.01215 3.4e-4,-31.03286 z"
         id="path601-6-9"
         style="fill:#000000;fill-opacity:1;fill-rule:evenodd;stroke-width:0.0855206"
         clip-path="url(#clipPath6964-7-8)"
         transform="matrix(-1.0294116,0,0,0.46257629,42.24182,128.7482)" />
      <path
         d="m 150.77998,-95.7155 c -0.2893,-0.36647 -0.61769,-0.69485 -0.9852,-0.98519 -1.12382,-0.22048 -1.39569,0.40956 -2.21686,0.49274 -0.32004,2.53492 -0.39921,5.21043 -0.65577,7.76031 0.0361,-0.0604 0.0852,-0.1079 0.16301,-0.12628 0.58596,1.32189 -0.4904,1.16591 -0.73894,2.21687 0.10055,0.47504 0.95543,0.19509 0.73894,0.98519 -0.2913,-0.0348 -0.55821,-0.43829 -0.73894,0 0.87128,0.3932 -0.0564,1.15454 0.98519,1.47789 -1.46556,1.76719 -0.71623,4.95788 0,7.14267 -0.31502,-0.0134 -0.34175,-0.31602 -0.73895,-0.2462 0.77169,9.58771 -0.33874,17.557379 0.9852,24.629933 6.19221,2.563651 3.32598,-8.88388 3.20198,-12.314963 -0.32171,-8.91382 0.35544,-22.01215 3.4e-4,-31.03286 z"
         id="path601-6-0-3"
         style="fill:#000000;fill-opacity:1;fill-rule:evenodd;stroke-width:0.0855206"
         clip-path="url(#clipPath6964-6-1-4)"
         transform="matrix(-1.0294116,0,0,0.46257629,19.25435,128.7482)" />
      <path
         d="m 125.71205,-39.58102 c -0.71223,0.578932 -3.13818,0.817791 -2.70929,0 -0.42193,0.866238 -0.49576,-0.61869 -0.9852,-0.492744 -1.94054,1.666626 -6.94051,-1.023254 -9.60567,1.231326 -0.15701,-0.536839 0.69786,-0.784053 -0.24621,-0.738949 -7.09556,0.06347 -13.829535,0.103556 -21.428041,0.491409 -0.864185,1.080724 -0.897966,2.819187 0,3.941987 14.510281,-0.06481 26.274491,-0.243204 43.594981,-0.73995 0.32004,-0.714234 0.32004,-1.74787 0,-2.462052 -3.25876,-0.921998 -5.57825,-0.03741 -8.62047,-1.23107 z"
         id="path605-6-5"
         style="fill-rule:evenodd;stroke-width:0.0855206"
         clip-path="url(#clipPath7220-1-1)"
         transform="matrix(-0.02933321,-0.7122384,0.99750913,-0.06588611,22.80616,137.09575)" />
      <path
         d="m 125.71205,-39.58102 c -0.71223,0.578932 -3.13818,0.817791 -2.70929,0 -0.42193,0.866238 -0.49576,-0.61869 -0.9852,-0.492744 -1.94054,1.666626 -6.94051,-1.023254 -9.60567,1.231326 -0.15701,-0.536839 0.69786,-0.784053 -0.24621,-0.738949 -7.09556,0.06347 -13.829535,0.103556 -21.428041,0.491409 -0.864185,1.080724 -0.897966,2.819187 0,3.941987 14.510281,-0.06481 26.274491,-0.243204 43.594981,-0.73995 0.32004,-0.714234 0.32004,-1.74787 0,-2.462052 -3.25876,-0.921998 -5.57825,-0.03741 -8.62047,-1.23107 z"
         id="path605-6-5-6"
         style="fill-rule:evenodd;stroke-width:0.0855206"
         clip-path="url(#clipPath7220-1-4-9)"
         transform="matrix(0.60271058,0.38063622,-0.51268209,0.8582089,-145.20056,49.24908)" />
      <path
         d="m 125.71205,-39.58102 c -0.71223,0.578932 -3.13818,0.817791 -2.70929,0 -0.42193,0.866238 -0.49576,-0.61869 -0.9852,-0.492744 -1.94054,1.666626 -6.94051,-1.023254 -9.60567,1.231326 -0.15701,-0.536839 0.69786,-0.784053 -0.24621,-0.738949 -7.09556,0.06347 -13.829535,0.103556 -21.428041,0.491409 -0.864185,1.080724 -0.897966,2.819187 0,3.941987 14.510281,-0.06481 26.274491,-0.243204 43.594981,-0.73995 0.32004,-0.714234 0.32004,-1.74787 0,-2.462052 -3.25876,-0.921998 -5.57825,-0.03741 -8.62047,-1.23107 z"
         id="path605-6-5-6-6"
         style="fill-rule:evenodd;stroke-width:0.0855206"
         clip-path="url(#clipPath7220-1-4-6-0)"
         transform="matrix(-0.58484266,0.40755742,-0.59171177,-0.80575593,-50.15391,-4.05543)" />
      <path
         d="m 125.71205,-39.58102 c -0.71223,0.578932 -3.13818,0.817791 -2.70929,0 -0.42193,0.866238 -0.49576,-0.61869 -0.9852,-0.492744 -1.94054,1.666626 -6.94051,-1.023254 -9.60567,1.231326 -0.15701,-0.536839 0.69786,-0.784053 -0.24621,-0.738949 -7.09556,0.06347 -13.829535,0.103556 -21.428041,0.491409 -0.864185,1.080724 -0.897966,2.819187 0,3.941987 14.510281,-0.06481 26.274491,-0.243204 43.594981,-0.73995 0.32004,-0.714234 0.32004,-1.74787 0,-2.462052 -3.25876,-0.921998 -5.57825,-0.03741 -8.62047,-1.23107 z"
         id="path605-6-5-6-6-1"
         style="fill-rule:evenodd;stroke-width:0.0855206"
         clip-path="url(#clipPath7220-1-4-6-2-9)"
         transform="matrix(0.41872193,0.57690201,-0.79423531,0.60708789,-212.81904,33.78331)" />
      <path
         style="fill:#5e76ad;fill-opacity:1;stroke:none;stroke-width:2.33868;stroke-linecap:round;stroke-linejoin:round;stroke-dashoffset:0.399999;stroke-opacity:1"
         id="path4889"
         sodipodi:type="arc"
         sodipodi:cx="-57.683655"
         sodipodi:cy="18.609793"
         sodipodi:rx="8.0248127"
         sodipodi:ry="8.0897169"
         sodipodi:start="0"
         sodipodi:end="6.2775729"
         sodipodi:open="true"
         sodipodi:arc-type="arc"
         d="m -49.658842,18.609793 a 8.0248127,8.0897169 0 0 1 -8.013553,8.089709 8.0248127,8.0897169 0 0 1 -8.036041,-8.067008 8.0248127,8.0897169 0 0 1 7.991002,-8.112347 8.0248127,8.0897169 0 0 1 8.058466,8.044243" />
      <path
         style="fill:#5e76ad;fill-opacity:1;stroke:none;stroke-width:3.58804;stroke-linecap:round;stroke-linejoin:round;stroke-dashoffset:0.399999;stroke-opacity:1"
         id="path4889-1"
         sodipodi:type="arc"
         sodipodi:cx="-44.432617"
         sodipodi:cy="16.788916"
         sodipodi:rx="11.676417"
         sodipodi:ry="13.086743"
         sodipodi:start="0"
         sodipodi:end="6.2775729"
         sodipodi:open="true"
         sodipodi:arc-type="arc"
         d="M -32.7562,16.788916 A 11.676417,13.086743 0 0 1 -44.416234,29.875646 11.676417,13.086743 0 0 1 -56.108989,16.82564 11.676417,13.086743 0 0 1 -44.481767,3.7022882 11.676417,13.086743 0 0 1 -32.756384,16.715468" />
      <path
         style="fill:#5e76ad;fill-opacity:1;stroke:none;stroke-width:2.80902;stroke-linecap:round;stroke-linejoin:round;stroke-dashoffset:0.399999;stroke-opacity:1"
         id="path4889-1-2"
         sodipodi:type="arc"
         sodipodi:cx="-28.11705"
         sodipodi:cy="18.472815"
         sodipodi:rx="10.417072"
         sodipodi:ry="8.9906216"
         sodipodi:start="0"
         sodipodi:end="6.2775729"
         sodipodi:open="true"
         sodipodi:arc-type="arc"
         d="m -17.699978,18.472815 a 10.417072,8.9906216 0 0 1 -10.402456,8.990612 10.417072,8.9906216 0 0 1 -10.431647,-8.965383 10.417072,8.9906216 0 0 1 10.373182,-9.0157714 10.417072,8.9906216 0 0 1 10.460757,8.9400834" />
      <path
         style="fill:#5e76ad;fill-opacity:1;stroke:none;stroke-width:2.62297;stroke-linecap:round;stroke-linejoin:round;stroke-dashoffset:0.399999;stroke-opacity:1"
         id="path4889-1-2-9"
         sodipodi:type="arc"
         sodipodi:cx="-21.736191"
         sodipodi:cy="18.047674"
         sodipodi:rx="9.0828848"
         sodipodi:ry="8.9906216"
         sodipodi:start="0"
         sodipodi:end="6.2775729"
         sodipodi:open="true"
         sodipodi:arc-type="arc"
         d="m -12.653306,18.047674 a 9.0828848,8.9906216 0 0 1 -9.070141,8.990613 9.0828848,8.9906216 0 0 1 -9.095593,-8.965383 9.0828848,8.9906216 0 0 1 9.044617,-9.0157717 9.0828848,8.9906216 0 0 1 9.120974,8.9400827" />
      <path
         style="fill:#5e76ad;fill-opacity:1;stroke:none;stroke-width:2.62297;stroke-linecap:round;stroke-linejoin:round;stroke-dashoffset:0.399999;stroke-opacity:1"
         id="path4889-1-2-9-3"
         sodipodi:type="arc"
         sodipodi:cx="-13.905624"
         sodipodi:cy="18.653326"
         sodipodi:rx="9.0828848"
         sodipodi:ry="8.9906216"
         sodipodi:start="0"
         sodipodi:end="6.2775729"
         sodipodi:open="true"
         sodipodi:arc-type="arc"
         d="m -4.8227396,18.653326 a 9.0828848,8.9906216 0 0 1 -9.0701404,8.990613 9.0828848,8.9906216 0 0 1 -9.095593,-8.965383 9.0828848,8.9906216 0 0 1 9.044616,-9.0157719 9.0828848,8.9906216 0 0 1 9.1209743,8.9400829" />
      <g
         fill-rule="evenodd"
         id="g607"
         transform="matrix(0.0855206,0,0,0.0855206,-85.13918,-5.53998)"
         clip-path="url(#clipPath3000-1-5-1-6)"
         style="fill:#305699;fill-opacity:1;stroke:#305699;stroke-opacity:1">
        <path
           d="m 1099.1,503.55 c -10.453,-85.43 -107.7,-73.02 -181.44,-74.879 0.26562,-15.098 4.7891,-25.934 2.8789,-43.199 44.879,-17.508 49.992,-74.809 60.48,-126.72 -2.3047,-10.992 -4.8125,17.508 -5.7617,0 -8.6758,-58.441 -50.016,-71.629 -74.879,-109.44 -22.262,-9.7578 -40.98,4.7656 -57.695,-4.0781 2.4727,1.1172 5.3281,1.4531 5.8555,-1.6797 -29.23,0.32422 -60.562,-6.2266 -77.762,-23.039 -26.09,4.5977 -46.309,-4.1523 -72,2.8789 -26.27,7.1992 -45.422,30.781 -72,20.16 -10.285,-4.1172 -7.2852,-18.422 -14.398,-25.922 -10.367,-10.934 -22.609,-8.5781 -31.68,-23.039 -14.832,-6.7422 -23.664,-1.6211 -34.559,-11.52 1.8945,-8.6289 6.1562,2.7461 11.52,0 -3.5156,-16.066 -36.961,-9.2266 -51.84,-23.039 h -43.199 c -56.941,14.102 -99.887,42.191 -126.72,86.398 -88.332,-4.6797 -146.9,44.531 -152.64,138.24 v 14.398 c 9.3359,57.469 50.867,96.203 92.16,112.32 -7.5859,66.492 5.4102,171.3 -2.8789,224.65 -1.7148,11.051 5.9414,25.344 5.7617,40.309 -0.70703,58.703 -0.19141,123.62 0,178.56 0.25391,71.207 -17.027,174.16 14.398,216 29.113,38.746 101.62,25.738 175.68,25.922 71.629,0.1914 150.85,3.0117 239.04,2.8789 76.895,-0.1211 178.49,14.797 204.48,-43.211 28.535,-63.66 -4.8359,-153.11 8.6523,-221.75 69.938,-14.965 168.17,15.445 178.56,-74.879 6.6094,-57.613 7.4258,-195.39 -0.012,-256.32 z m -221.77,538.57 c -16.246,24.312 -54.875,16.344 -92.16,14.387 -20.426,-1.0664 -43.801,4.6211 -57.602,2.8789 -5.9648,-0.7422 -11.941,-8.543 -17.281,-8.6406 -22.078,-0.3945 -46.754,7.2227 -66.238,8.6406 -14.016,-4.2344 -21.395,-15.086 -43.211,-11.52 5.5078,6.1211 -8.3984,5.8438 -20.16,8.6406 1.8711,-2.9141 6.625,-2.9766 5.7617,-8.6406 -17.617,10.859 -31.883,-6.8633 -43.199,11.52 -11.258,-18.266 -66.602,-8.832 -115.2,-8.6406 -16.777,0.07 -43.535,-3.707 -72,8.6406 3.8516,-10.129 -2.4961,-10.488 -17.281,-14.398 -17.016,-88.836 -12.406,-187.11 -14.398,-279.35 -1.9062,-88.57 8.5195,-174.68 -2.8789,-267.84 7.8828,-23.438 1.8125,-45.742 2.8789,-77.762 19.355,-6.5625 44.629,-7.2109 57.602,-20.16 41.594,57.324 165.68,56.484 201.6,-2.8789 30.133,10.246 80.258,23.004 112.32,5.7617 28.645,9.5039 71.773,6.5391 97.922,-2.8789 18.406,10.43 61.117,17.242 83.52,5.7617 8.9414,127.77 -0.46875,310.43 5.7617,466.56 1.5391,38.266 12.59,142.45 -5.7578,169.92 z M 793.81,356.68 c -27.191,13.453 -65.305,19.164 -95.039,2.8789 -40.727,23.844 -93.66,12.445 -120.96,-20.16 -21.059,11.496 -22.441,36.91 -43.199,48.961 -53.496,31.066 -119.17,0.70703 -138.24,-48.961 -51.527,62.566 -186.24,33.035 -167.04,-74.879 6.3594,-9.9609 14.258,-18.383 14.398,-34.559 19.512,-14.09 38.746,-28.465 66.238,-34.559 11.988,3.9375 52.715,16.465 63.359,0 v 5.7617 c 5.207,-10.656 21.637,-25.836 17.281,-40.32 3.1328,0.71875 1.957,5.7344 5.7617,5.7617 -1.7266,-13.738 14.23,-8.1602 11.52,-28.801 6.9375,-1.1758 6.2539,5.2578 14.398,2.8789 23.41,-28.32 88.465,-17.617 112.32,-17.281 3.2148,3.5391 2.5078,5.9141 -2.8789,5.7617 19.199,15.254 54.383,44.258 57.602,74.879 0.79297,5.9297 10.727,2.7109 11.52,8.6406 24.516,-17.711 50.711,-4.8008 77.762,-11.52 26.074,-6.4688 36.395,-26.977 63.348,-25.922 22.715,0.88672 53.23,11.746 69.133,28.801 8.5547,-2.9648 23.016,-0.0117 25.922,-8.6406 38.473,5.8086 60.602,22.43 80.641,40.32 37.539,85.617 -43.891,162.37 -123.85,120.96 z m 259.21,420.48 c -15.84,0.48047 -22.105,10.547 -37.441,11.52 v -8.6406 c -9.0586,15.098 -21.266,-7.2969 -25.922,8.6406 -8.125,-0.51562 -3.6016,-13.691 -14.398,-11.52 -2.6875,2.1133 -4.3555,5.2422 -5.7617,8.6406 -3.2539,-0.55078 -1.5977,-2.8906 0,-2.8789 -17.773,-5.0273 -33.816,6.8047 -48.949,-23.039 0.45703,-3.3711 5.2578,-2.4258 8.6406,-2.8789 -0.82813,-90.938 -5.8789,-186.7 -2.8789,-282.24 45.816,3.7188 128.81,-27.551 135.36,31.68 2.293,20.785 -0.7813,49.094 0,77.762 1.9102,69.953 4.0469,153.66 -8.6484,192.95 z"
           id="path597"
           style="fill:#305699;fill-opacity:1;stroke:#305699;stroke-opacity:1" />
        <path
           d="m 423.27,588.55 c -1.3555,2.3164 -0.60156,6.7422 -0.98438,10.043 0.40625,-3.2969 0.64844,-6.6953 0.98438,-10.043 z"
           id="path599"
           style="fill:#305699;fill-opacity:1;stroke:#305699;stroke-opacity:1" />
      </g>
      <path
         style="fill:#000000;fill-opacity:1;stroke:none;stroke-width:2.38125;stroke-linecap:round;stroke-linejoin:round;stroke-dashoffset:0.399999;stroke-opacity:1"
         id="path7057"
         sodipodi:type="arc"
         sodipodi:cx="-32.023148"
         sodipodi:cy="46.923332"
         sodipodi:rx="2.7844253"
         sodipodi:ry="3.7549386"
         sodipodi:start="0"
         sodipodi:end="6.2775729"
         sodipodi:open="true"
         sodipodi:arc-type="arc"
         d="m -29.238722,46.923332 a 2.7844253,3.7549386 0 0 1 -2.780519,3.754935 2.7844253,3.7549386 0 0 1 -2.788321,-3.744398 2.7844253,3.7549386 0 0 1 2.772694,-3.765442 2.7844253,3.7549386 0 0 1 2.796102,3.733831" />
      <path
         style="fill:#000000;fill-opacity:1;stroke:none;stroke-width:2.38125;stroke-linecap:round;stroke-linejoin:round;stroke-dashoffset:0.399999;stroke-opacity:1"
         id="path7057-6"
         sodipodi:type="arc"
         sodipodi:cx="-44.416565"
         sodipodi:cy="46.923332"
         sodipodi:rx="2.7844253"
         sodipodi:ry="3.7549386"
         sodipodi:start="0"
         sodipodi:end="6.2775729"
         sodipodi:open="true"
         sodipodi:arc-type="arc"
         d="m -41.63214,46.923332 a 2.7844253,3.7549386 0 0 1 -2.780518,3.754935 2.7844253,3.7549386 0 0 1 -2.788321,-3.744398 2.7844253,3.7549386 0 0 1 2.772694,-3.765442 2.7844253,3.7549386 0 0 1 2.796101,3.733831" />
      <path
         style="fill:#ffffff;fill-opacity:1;stroke:#000000;stroke-width:2.62331;stroke-linecap:round;stroke-linejoin:round;stroke-dashoffset:0.399999;stroke-opacity:1"
         id="path7086"
         sodipodi:type="arc"
         sodipodi:cx="136.45769"
         sodipodi:cy="-76.59864"
         sodipodi:rx="5.6989045"
         sodipodi:ry="6.9164014"
         sodipodi:start="0"
         sodipodi:end="6.2775729"
         sodipodi:open="true"
         sodipodi:arc-type="arc"
         d="m 142.15659,-76.59864 a 5.6989045,6.9164014 0 0 1 -5.69091,6.916394 5.6989045,6.9164014 0 0 1 -5.70687,-6.896986 5.6989045,6.9164014 0 0 1 5.67489,-6.935749 5.6989045,6.9164014 0 0 1 5.7228,6.877523"
         clip-path="url(#clipPath7090-1)"
         transform="matrix(1.1018908,0,0,1.1018908,-188.18327,144.15841)" />
      <rect
         style="fill:#ffffff;fill-opacity:1;stroke:#000000;stroke-width:2.16631;stroke-linecap:round;stroke-linejoin:round;stroke-dashoffset:0.399999;stroke-opacity:1"
         id="rect7146"
         width="13.244439"
         height="1.2130622"
         x="-44.437546"
         y="58.542305"
         ry="0.60653108" />
      <g
         id="g511"
         transform="translate(-209.55375,204.74982)">
        <path
           style="fill:#000000;fill-opacity:1;stroke:none;stroke-width:2.38125;stroke-linecap:round;stroke-linejoin:round;stroke-dashoffset:0.399999;stroke-opacity:1"
           id="path7057-5"
           sodipodi:type="arc"
           sodipodi:cx="98.880142"
           sodipodi:cy="-140.12195"
           sodipodi:rx="2.7844253"
           sodipodi:ry="3.7549386"
           sodipodi:start="0"
           sodipodi:end="6.2775729"
           sodipodi:open="true"
           sodipodi:arc-type="arc"
           d="m 101.66457,-140.12195 a 2.7844253,3.7549386 0 0 1 -2.780521,3.75494 2.7844253,3.7549386 0 0 1 -2.788321,-3.7444 2.7844253,3.7549386 0 0 1 2.772694,-3.76544 2.7844253,3.7549386 0 0 1 2.796098,3.73383" />
        <path
           style="fill:#000000;fill-opacity:1;stroke:none;stroke-width:2.38125;stroke-linecap:round;stroke-linejoin:round;stroke-dashoffset:0.399999;stroke-opacity:1"
           id="path7057-6-6"
           sodipodi:type="arc"
           sodipodi:cx="86.486717"
           sodipodi:cy="-140.12195"
           sodipodi:rx="2.7844253"
           sodipodi:ry="3.7549386"
           sodipodi:start="0"
           sodipodi:end="6.2775729"
           sodipodi:open="true"
           sodipodi:arc-type="arc"
           d="m 89.271142,-140.12195 a 2.7844253,3.7549386 0 0 1 -2.780518,3.75494 2.7844253,3.7549386 0 0 1 -2.788321,-3.7444 2.7844253,3.7549386 0 0 1 2.772694,-3.76544 2.7844253,3.7549386 0 0 1 2.796102,3.73383" />
        <path
           style="fill:#ffffff;fill-opacity:1;stroke:#000000;stroke-width:2.62331;stroke-linecap:round;stroke-linejoin:round;stroke-dashoffset:0.399999;stroke-opacity:1"
           id="path7086-2"
           sodipodi:type="arc"
           sodipodi:cx="136.45769"
           sodipodi:cy="-76.59864"
           sodipodi:rx="5.6989045"
           sodipodi:ry="6.9164014"
           sodipodi:start="0"
           sodipodi:end="6.2775729"
           sodipodi:open="true"
           sodipodi:arc-type="arc"
           d="m 142.15659,-76.59864 a 5.6989045,6.9164014 0 0 1 -5.69091,6.916394 5.6989045,6.9164014 0 0 1 -5.70687,-6.896986 5.6989045,6.9164014 0 0 1 5.67489,-6.935749 5.6989045,6.9164014 0 0 1 5.7228,6.877523"
           clip-path="url(#clipPath7090-5-2)"
           transform="matrix(1.1018908,0,0,1.1018908,-57.279989,-42.886861)" />
        <rect
           style="fill:#ffffff;fill-opacity:1;stroke:#000000;stroke-width:2.16631;stroke-linecap:round;stroke-linejoin:round;stroke-dashoffset:0.399999;stroke-opacity:1"
           id="rect7146-9"
           width="13.244439"
           height="1.2130622"
           x="86.465744"
           y="-128.50296"
           ry="0.60653108" />
      </g>
      <g
         fill="#2e559d"
         fill-rule="evenodd"
         id="g291"
         transform="matrix(-0.09929893,0,0,0.09455765,-71.90631,26.18812)"
         inkscape:export-filename="../6dd74c34/lets_learn_together.png"
         inkscape:export-xdpi="200"
         inkscape:export-ydpi="200">
        <path
           d="m 647.3,227.64 c 25.117,-26.352 10.523,-85.031 2.8789,-126.72 -12,-3.0234 -17.137,-10.512 -37.441,-2.8789 -10.344,28.176 0.22656,78.18 0,120.96 8.5352,8.2773 20.664,13.219 34.562,8.6367 z"
           id="path281" />
        <path
           d="m 500.44,227.64 c 25.535,4.7266 39.336,-10.02 34.559,-28.801 3.625,0.63672 5.8906,4.4883 5.7617,-2.8789 -5.2578,-27.023 8.8086,-116.69 -23.039,-132.48 h -14.398 c -29.41,16.871 -11.941,36.613 -11.52,74.879 0.22266,22.117 -6.1953,77.727 8.6367,89.281 z"
           id="path283" />
        <path
           d="m 718.05,243.45 c -0.20313,-0.875 -1.9922,-1.7383 -4.5,-1.4023 1.3945,0.53516 2.918,0.98047 4.5,1.4023 z"
           id="path285" />
        <path
           d="m 1007.3,349.26303 c -8.9297,-51.27101 -100.45,-52.28984 -178.56,-54.82942 3.9961,-13.83269 1.9453,-32.98108 -11.52,-44.86207 -22.512,-11.31272 -72.949,-5.23279 -99.18,-9.15852 0.19141,0.47776 -1.043,0.95549 -4.5,0.85187 -31.738,1.18989 -57.59,-3.64852 -80.652,3.32401 -24.254,-11.52041 -43.223,-6.56241 -74.879,-3.32401 0.0469,-2.74259 7.9922,-0.92849 8.6406,-3.32401 -18.648,2.0147 -37.453,-1.05916 -60.48,4.98489 -5.5547,-0.67158 -0.25391,-7.60835 -11.52,-4.98489 -32.605,0.60172 -43.066,2.17468 -66.238,-1.66088 -32.113,6.27164 -67.02,0.89243 -97.922,1.66088 -23.473,0.58142 -43.777,7.17971 -63.359,3.32401 4.3086,-0.28395 10.633,0.58817 11.52,-1.66088 -43.777,-3.71164 -88.246,0.71889 -97.922,28.24634 v 139.56727 c 3.5039,38.471 5.7617,81.32193 5.7617,121.2906 0,74.69319 -28.355,158.25932 43.199,204.36637 51.289,32.34993 172.51,19.64684 262.08,18.28301 152.69,-2.33247 317.89,17.73552 336.96,-69.78364 3.1211,-14.32364 -7.4531,-34.6149 8.6406,-51.50754 35.832,-5.91107 67.355,-14.30346 95.039,-24.92215 26.629,-18.54032 68.652,-47.58222 74.879,-91.38334 7.4023,-51.86177 7.8242,-119.65793 0.012,-164.49577 z M 762.51,713.12908 c -27.852,10.93888 -86.363,19.86318 -126.73,9.96967 -11.375,0.86537 11.375,2.44963 0,3.31501 -33.828,1.05915 -44.82,-4.33362 -69.121,1.66088 -15.984,-1.86148 -22.691,-9.06853 -46.078,-6.64606 5.0742,2.85976 -7.5586,5.24179 -23.039,4.98489 0.64844,-2.39553 8.5938,-0.57467 8.6406,-3.31501 -12.742,0.64453 -37.801,-1.09972 -51.84,4.98489 1.5586,-11.31965 -34.848,-2.29191 -34.559,-4.98489 -41.148,-1.25975 -117.48,3.86262 -158.4,-9.96967 0.64844,-2.11838 8.5938,-2.17468 8.6406,0 6.0586,-4.69419 -12.875,-9.11814 -17.281,-13.29155 -33.504,-49.66661 -1.0938,-122.73866 -20.16,-176.11483 12.266,-23.73255 -5.5312,-63.4145 5.7617,-84.73727 -5.3398,-55.13346 -5.4375,-118.37719 0,-169.47455 179.76,2.61643 359.09,-6.1476 547.21,-1.66088 8.7109,100.46398 5.7461,219.29115 5.7461,340.61061 -0.004,46.32915 7.3047,81.07963 -28.793,104.66968 z M 969.86,520.39332 c -13.332,5.60011 -13.883,18.57378 -20.16,28.24634 -3.3477,0.27042 -5.125,-0.36734 -5.7617,-1.66089 2.7344,5.72635 -10.465,11.4235 -11.52,19.93761 -10.754,0.15324 -8.207,1.86822 -17.27,0 -3.9375,6.4251 1.2461,6.55548 -2.8789,11.63753 -6.5039,-0.93524 3.4922,-2.59612 -2.8789,-4.99164 -2.293,4.7708 -9.8047,6.52837 -8.6406,13.29154 -16.379,-5.85049 -36.781,13.00078 -57.602,11.63753 -3.4336,-2.9905 -5.4844,-17.2036 -5.7617,-23.26121 -4.3555,-95.60058 4.7031,-152.57094 -8.6406,-257.53485 31.969,3.94598 74.746,-1.35667 100.8,3.32401 36.254,11.93522 37.477,27.00655 40.309,63.13758 3.6875,46.68742 3.6758,103.88508 0.004,136.2327 z"
           id="path287"
           style="fill:#000000;stroke-width:0.759549" />
        <path
           d="m 411.16,100.92 c -62.773,-31.008 -39.266,67.621 -37.441,120.96 72.109,27.117 42.805,-67.43 37.441,-120.96 z"
           id="path289" />
      </g>
    </g>
  </g>
</svg>
